<svg xmlns="http://www.w3.org/2000/svg" width="300" height="136" viewBox="0 0 300 136"><style>
  .bg { fill: #ffffff; stroke: #d0d7de; }
  .t { fill: #1f2328; font: 600 14px -apple-system, Segoe UI, Helvetica, Arial, sans-serif; }
  .s { fill: #59636e; font: 400 12px -apple-system, Segoe UI, Helvetica, Arial, sans-serif; }
  .n { fill: #1f2328; font: 700 32px -apple-system, Segoe UI, Helvetica, Arial, sans-serif; }
  .a { fill: #2E8B57; font: 600 14px -apple-system, Segoe UI, Helvetica, Arial, sans-serif; }
  @media (prefers-color-scheme: dark) {
    .bg { fill: #0d1117; stroke: #30363d; }
    .t, .n { fill: #e6edf3; }
    .s { fill: #9198a1; }
  }
</style><rect class="bg" x="0.5" y="0.5" width="299" height="135" rx="6"/><text class="t" x="24" y="32">Top languages</text><clipPath id="r"><rect x="24" y="48" width="252" height="8" rx="4"/></clipPath><g clip-path="url(#r)"><rect x="24.0" y="48" width="158.5" height="8" fill="#2E8B57"/><rect x="182.5" y="48" width="30.1" height="8" fill="#3CB371"/><rect x="212.6" y="48" width="18.5" height="8" fill="#66CDAA"/><rect x="231.1" y="48" width="17.9" height="8" fill="#8FBC8F"/><rect x="249.0" y="48" width="14.0" height="8" fill="#20B2AA"/><rect x="263.0" y="48" width="13.0" height="8" fill="#98FB98"/></g><circle cx="28" cy="74" r="4" fill="#2E8B57"/><text class="s" x="38" y="78">Ruby 63%</text><circle cx="158" cy="74" r="4" fill="#3CB371"/><text class="s" x="168" y="78">QML 12%</text><circle cx="28" cy="92" r="4" fill="#66CDAA"/><text class="s" x="38" y="96">Python 7%</text><circle cx="158" cy="92" r="4" fill="#8FBC8F"/><text class="s" x="168" y="96">JavaScript 7%</text><circle cx="28" cy="110" r="4" fill="#20B2AA"/><text class="s" x="38" y="114">Shell 6%</text><circle cx="158" cy="110" r="4" fill="#98FB98"/><text class="s" x="168" y="114">Svelte 5%</text></svg>
